<svg version="1.1" xmlns="http://www.w3.org/2000/svg" viewBox="0 0 611.4416809082031 439.8937072753906" width="611.4416809082031" height="439.8937072753906">
  <!-- svg-source:excalidraw -->
  
  <defs>
    <style>
      @font-face {
        font-family: "Virgil";
        src: url("https://excalidraw.com/Virgil.woff2");
      }
      @font-face {
        font-family: "Cascadia";
        src: url("https://excalidraw.com/Cascadia.woff2");
      }
    </style>
  </defs>
  <g transform="translate(10 19.973724365234375) rotate(0 53.35942077636719 51.36466979980469)"><path d="M-0.719861077144742 -0.4140548538416624 C37.16162849742021 0.6021349005666359, 73.35532624764434 -1.314218861583175, 107.75475849024951 0.7464907933026552 M-0.9350637411698699 -0.4618500107899308 C41.963071680944424 0.8198090402871762, 83.21103868417444 0.5345572142392788, 106.68910003546625 0.34721995051950216 M108.13501180522144 -0.04574219696223736 C107.11847767573926 39.38982760630812, 107.65619507772061 73.08621779837242, 107.83367426507175 100.8191968370229 M107.61107588652521 -0.9564735824242234 C105.80388616362096 29.24180172468313, 106.10732122102262 56.599385465323195, 106.36680952552706 101.79135427530855 M107.71681149117649 103.7362381387502 C69.25552835987138 100.97834695806998, 31.649788365162948 104.10454614391821, 0.617239011451602 101.47366137988865 M107.71397916320711 103.01693472918123 C79.70772412680274 102.75426153614235, 52.46029725354535 102.55933601929856, -0.4769338881596923 102.65362424310297 M-0.4337515700608492 101.10730119235814 C-0.6792532983596985 79.07133186390378, -1.0215522232826415 57.93448858830587, -0.38685684092342854 -1.9665682148188353 M-0.7868458544835448 102.89309782441705 C0.955916172183619 73.5125484706383, -0.5973019839157004 42.40086565586099, 0.1235375190153718 -0.7204196089878678" stroke="#000000" stroke-width="1" fill="none"></path></g><g transform="translate(21.864669799804688 68.81208801269531) rotate(0 39.5 12.5)"><text x="39.5" y="17" font-family="Virgil, Segoe UI Emoji" font-size="20px" fill="#000000" text-anchor="middle" style="white-space: pre;" direction="ltr">Worker-1</text></g><g transform="translate(20.256072998046875 30.24627685546875) rotate(0 24.026275634765625 8.833189571605004)"><text x="0" y="11.666379143210008" font-family="Virgil, Segoe UI Emoji" font-size="14.133103314568013px" fill="#e67700" text-anchor="start" style="white-space: pre;" direction="ltr">estado</text></g><g transform="translate(168.5525360107422 277.70103454589844) rotate(0 53.35942077636719 51.36466979980469)"><path d="M1.9134923946112394 -1.8086197208613157 C37.86664258659829 1.0496407986560385, 75.71720603236952 -1.469885265739866, 106.89501656405628 0.14397151954472065 M-0.6716490006074309 0.8310916787013412 C40.44221714851353 -0.7209873684425898, 80.87698421468771 0.7010476402263097, 107.01614011172205 0.8987408941611648 M107.65728892199695 -0.20703832618892193 C104.44288808232139 20.06098432263194, 106.37589204436134 41.891341032121744, 108.06524856202304 103.14208497293293 M107.61087597254664 -0.6065212422981858 C107.43613737021086 28.50694366996267, 106.81884565148947 58.14653830481874, 106.90521053317934 102.94639465864748 M106.54720170609653 101.50230254419148 C82.10956147725439 105.2126237293986, 53.878294463133926 105.73613889425074, -1.6328685153275728 102.53323622234166 M107.26986674312502 103.26630494650453 C64.45183690527267 103.91729641843604, 21.855892066504808 102.62863234568404, 0.2761239493265748 103.50849754270166 M-0.180746303871274 101.92450542934239 C1.7772238312155522 62.48464768822954, 1.5562856851012028 27.229804671848143, 0.2536682616919279 0.8206601310521364 M-0.015324882231652737 102.98194939550012 C0.7474265982480701 81.84411478408911, 1.1487258066507038 59.97478050074207, 0.30939183477312326 0.6532563334330916" stroke="#000000" stroke-width="1" fill="none"></path></g><g transform="translate(175.91458129882812 326.5393981933594) rotate(0 45 12.5)"><text x="45" y="17" font-family="Virgil, Segoe UI Emoji" font-size="20px" fill="#000000" text-anchor="middle" style="white-space: pre;" direction="ltr">Worker-2</text></g><g transform="translate(178.80860900878906 287.9735870361328) rotate(0 24.026275634765625 8.833189571605004)"><text x="0" y="11.666379143210008" font-family="Virgil, Segoe UI Emoji" font-size="14.133103314568013px" fill="#e67700" text-anchor="start" style="white-space: pre;" direction="ltr">estado</text></g><g transform="translate(258.60752868652344 46.51564025878906) rotate(0 53.35942077636719 51.36466979980469)"><path d="M1.819188253954053 -1.963793383911252 C43.49726056772458 0.5119296779952887, 84.0702475085703 -1.2575810084022638, 107.20335526950657 -0.03837768919765949 M0.826903915964067 -0.5210724985226989 C28.500040394223003 0.01577601942335738, 57.72588740562403 0.6237650624207176, 106.30259031709284 -0.8633956527337432 M108.10762496478856 1.9640832673758268 C107.14640480297452 19.395294825292595, 105.18918991106396 43.51334834793104, 107.61629034765065 103.48011900298297 M106.32374114450067 0.10819415096193552 C107.52363609615549 36.03514745445669, 107.46247389260515 70.97520138203592, 106.61660341080278 103.59199041966349 M106.02963902242482 102.23399902693927 C86.60102580967953 104.74243355632682, 64.74078913807195 102.26429326177497, -1.2221459578722715 104.52180714718997 M106.58743838127702 101.76685018185526 C73.30403761179251 103.22818031357862, 41.00907735591883 101.8196040337, -0.9191311532631516 103.34944043401629 M1.1763559151440859 102.60571951977909 C0.1117279892064873 64.08643245379254, -0.9214642281435188 22.930134813465173, -0.4686919283121824 -0.2280715573579073 M0.0016321009024977684 103.51248226407915 C-1.1299672400792489 77.56841247921615, 0.598110439793264 53.16753365046887, -0.09364535752683878 -0.3550531780347228" stroke="#000000" stroke-width="1" fill="none"></path></g><g transform="translate(265.9695739746094 95.35400390625) rotate(0 45 12.5)"><text x="45" y="17" font-family="Virgil, Segoe UI Emoji" font-size="20px" fill="#000000" text-anchor="middle" style="white-space: pre;" direction="ltr">Worker-3</text></g><g transform="translate(268.8636016845703 56.78819274902344) rotate(0 24.026275634765625 8.833189571605004)"><text x="0" y="11.666379143210008" font-family="Virgil, Segoe UI Emoji" font-size="14.133103314568013px" fill="#e67700" text-anchor="start" style="white-space: pre;" direction="ltr">estado</text></g><g><g transform="translate(123.70040893554688 63.85809326171875) rotate(0 57.73195308633149 27.799803974684338)"><path d="M-1.170125226303935 0.8852010827511549 C18.20081260986626 9.826503020649156, 96.8336170155555 45.13201871129374, 116.63403139896691 54.1357325296849 M0.4164203005470335 0.30432770585641267 C19.58847969407216 9.34432472343867, 96.1646494906582 45.970624393379936, 115.65525531286374 55.295280243512245" stroke="#e67700" stroke-width="1" fill="none"></path></g><g transform="translate(123.70040893554688 63.85809326171875) rotate(0 57.73195308633149 27.799803974684338)"><path d="M87.27166296973981 52.29178918165925 C94.58242012918392 55.217507400623944, 105.84256054780687 52.879671159354515, 114.36770470144228 55.939716317933055 M86.69839946333475 52.2890715032241 C93.73888793564507 53.16047456344631, 102.83697050138936 53.6836593068898, 116.5681028383039 55.358180765304716" stroke="#e67700" stroke-width="1" fill="none"></path></g><g transform="translate(123.70040893554688 63.85809326171875) rotate(0 57.73195308633149 27.799803974684338)"><path d="M96.12522304421164 33.77869985562946 C100.55386714753018 42.8020823228639, 108.85662014962541 46.64824177974534, 114.36770470144228 55.939716317933055 M95.55195953780658 33.775982177194315 C100.16278512958422 39.74130263660223, 106.79349189500839 45.42385244991404, 116.5681028383039 55.358180765304716" stroke="#e67700" stroke-width="1" fill="none"></path></g></g><g><g transform="translate(315.1958923339844 157.611083984375) rotate(0 -33.05891560405496 54.22800036184489)"><path d="M0.9582605939358471 0.9971298772841692 C-10.205710397039852 18.82815084842344, -55.124788313979906 89.11692767130832, -66.36760719008744 106.88168544359505 M0.0022086764127016156 0.4750191175192593 C-11.333775935893257 18.446524855618673, -55.89345885905127 89.92104653152326, -67.07609180204571 107.98098160617053" stroke="#e67700" stroke-width="1" fill="none"></path></g><g transform="translate(315.1958923339844 157.611083984375) rotate(0 -33.05891560405496 54.22800036184489)"><path d="M-59.24273826892384 79.38313818747346 C-64.48941481378628 89.52911495903292, -65.48445214054809 101.09891008536468, -66.07827433228493 109.62806442856788 M-60.110952463586706 77.8157476161251 C-63.00828980834676 85.29697206632466, -63.785070949241465 90.95098707776435, -67.58839767921717 108.46398466277867" stroke="#e67700" stroke-width="1" fill="none"></path></g><g transform="translate(315.1958923339844 157.611083984375) rotate(0 -33.05891560405496 54.22800036184489)"><path d="M-41.81540183427841 90.21863296987816 C-53.17576974714434 96.69670779532686, -60.29392896880692 104.459434894193, -66.07827433228493 109.62806442856788 M-42.68361602894128 88.65124239852979 C-49.40813166988253 93.75773761145173, -53.962218223574695 97.06320250191314, -67.58839767921717 108.46398466277867" stroke="#e67700" stroke-width="1" fill="none"></path></g></g><g transform="translate(443.8569030761719 10) rotate(0 78.79238891601562 82.2832260131836)"><path d="M1.478241814300418 0.21061809547245502 C52.94630312253969 1.9012108121388762, 108.66987094628189 -0.4105000819689424, 157.25764615647495 1.0268892217427492 M0.6395207727327943 0.3072205847129226 C54.76016726374979 1.9754794865963259, 109.12471882221064 1.707196387660245, 156.58538273815066 0.19942328985780478 M157.25339324586093 -0.26535902731120586 C156.41802913149374 55.709194017171505, 156.91906631191748 112.59599567310441, 156.5939681660384 165.19306488521397 M157.82107166294008 0.13951180037111044 C159.59938573576383 43.96806898453249, 159.83063050843649 85.41293533464847, 157.28113288525492 165.32122618611902 M157.8294155728072 165.4748370219022 C115.63439816327887 164.11566986051466, 73.46869098019098 164.50019843784239, -1.3321323860436678 165.20404531247914 M156.69470114354044 163.67462188657373 C100.80538009514423 163.94686076450068, 42.984976321223115 163.64616227554995, 0.8768778825178742 164.33871904667467 M-0.15337138064205647 165.17653705365956 C0.3430335088874441 130.19164025957912, -2.004085286030616 93.83932899101139, -1.7439831364899874 0.19001849181950092 M0.19073758367449045 163.6603535776958 C-1.4164923265497273 112.29249609368154, -1.0588075056593007 59.57824025609064, 0.44222832564264536 0.8035070961341262" stroke="#e67700" stroke-width="1" fill="none"></path></g><g transform="translate(476.3874816894531 40.96772766113281) rotate(0 41 37.5)"><text x="0" y="17" font-family="Virgil, Segoe UI Emoji" font-size="20px" fill="#e67700" text-anchor="start" style="white-space: pre;" direction="ltr">Pipeline 1</text><text x="0" y="42" font-family="Virgil, Segoe UI Emoji" font-size="20px" fill="#e67700" text-anchor="start" style="white-space: pre;" direction="ltr"></text><text x="0" y="67" font-family="Virgil, Segoe UI Emoji" font-size="20px" fill="#e67700" text-anchor="start" style="white-space: pre;" direction="ltr"></text></g><g transform="translate(464.4162902832031 115.02030944824219) rotate(0 58.5 12.5)"><text x="0" y="17" font-family="Virgil, Segoe UI Emoji" font-size="20px" fill="#e67700" text-anchor="start" style="white-space: pre;" direction="ltr">Define links</text></g><g transform="translate(394.9856872558594 240.39300537109375) rotate(0 75.30160522460938 94.75035095214844)"><path d="M1.3509451318532228 -0.5275403130799532 C36.07567392820309 -1.09407836907996, 73.40186032037815 1.183636896670925, 149.6504106093198 -0.6010717619210482 M0.5490816598758101 0.7208038652315736 C57.64191072219357 -1.8492188277766872, 114.70371008327842 -0.9966542842910457, 150.0129348700866 0.807519712485373 M149.0792164374143 -0.7149438131600618 C150.52998873095194 50.80524266383273, 150.67276468376795 107.5010406367972, 151.77847935445607 188.9060266148299 M150.7825598185882 -0.6265911674126983 C149.65290117172736 42.95370668684295, 150.33800819425124 83.72068914955807, 150.24391726311296 190.0593153918162 M150.20464541204274 190.3677923809737 C92.22163994044095 189.07242596435526, 36.607303978726875 190.34756630945185, 1.7156320381909609 188.7748174201697 M151.43783572968096 189.69761509541422 C98.36836026205644 188.59401887001195, 48.40671007366777 189.64730324687162, -0.24334775749593973 188.8610998177901 M1.7402325440198183 188.26583428494632 C0.105041863332622 136.17139956644166, 0.0751608032091784 85.33497380484621, 0.9957431722432375 1.5186673533171415 M-0.6873916322365403 190.4192222142592 C-0.4431332566314272 136.10536470662905, -0.8657590069346957 82.55515713948962, -0.8050918811932206 -0.5901970779523253" stroke="#5f3dc4" stroke-width="1" fill="none"></path></g><g><g transform="translate(63.858001708984375 127.68994140625) rotate(0 46.162598623707936 86.78239622577092)"><path d="M-0.43115182332694524 0.6703361850231886 C14.927666719630361 29.64391325923304, 77.46109597273171 144.9821496428301, 92.75634907074273 173.5881337147206 M1.5433547400869432 -0.02334126317873597 C16.778675070349127 28.658010804808388, 77.5302691947855 143.09275140161935, 92.33224691564217 172.01300485586748" stroke="#5f3dc4" stroke-width="1" fill="none"></path></g><g transform="translate(63.858001708984375 127.68994140625) rotate(0 46.162598623707936 86.78239622577092)"><path d="M71.29643225013236 153.44656791011727 C79.63433333855596 158.25239943979994, 85.25775591670043 166.9023560064809, 91.65664658250287 172.10932388870046 M69.81626303303013 152.19828916839248 C78.60709370146081 158.88009296371106, 87.58132268757603 166.79258709607052, 91.52889534106478 171.4291484306194" stroke="#5f3dc4" stroke-width="1" fill="none"></path></g><g transform="translate(63.858001708984375 127.68994140625) rotate(0 46.162598623707936 86.78239622577092)"><path d="M89.48269147136426 143.9397294280562 C91.43012212479324 152.01033599734686, 90.68314389564388 163.99040959382515, 91.65664658250287 172.10932388870046 M88.00252225426203 142.69145068633142 C90.11504840917631 153.05441094062982, 92.34578166782171 164.4920568870951, 91.52889534106478 171.4291484306194" stroke="#5f3dc4" stroke-width="1" fill="none"></path></g></g><g><g transform="translate(127.68991088867188 49.8948974609375) rotate(0 64.74846830710771 15.227276052385562)"><path d="M-0.19484083838760857 0.43789019174873833 C21.710179132347303 5.664772089198232, 109.48559266539911 25.88292424269021, 131.25320762209594 30.83237350769341 M-1.7562710078805686 -0.3778214029222726 C20.058484008287394 4.569438593015075, 108.7400141938279 23.864523028954864, 130.61882125772536 29.188178975209595" stroke="#5f3dc4" stroke-width="1" fill="none"></path></g><g transform="translate(127.68991088867188 49.8948974609375) rotate(0 64.74846830710771 15.227276052385562)"><path d="M101.58025699436054 33.90460458185996 C110.87715537458385 31.487655630999512, 118.20582438241041 32.24077349900496, 129.24403799325228 31.02521959513426 M99.87012459944323 32.1037695284235 C108.89021786196793 32.58638830746087, 118.64926659178752 30.284997932231946, 131.1896849302575 29.348515774197878" stroke="#5f3dc4" stroke-width="1" fill="none"></path></g><g transform="translate(127.68991088867188 49.8948974609375) rotate(0 64.74846830710771 15.227276052385562)"><path d="M106.153126638645 13.899383623264644 C114.0574045039015 17.181645470558866, 120.08162898841465 23.64139898468006, 129.24403799325228 31.02521959513426 M104.4429942437277 12.098548569828186 C112.05718685138643 18.34626386257014, 120.49290097833172 21.834148754731448, 131.1896849302575 29.348515774197878" stroke="#5f3dc4" stroke-width="1" fill="none"></path></g></g><g transform="translate(419.2796936035156 258.1726989746094) rotate(0 47 12.5)"><text x="0" y="17" font-family="Virgil, Segoe UI Emoji" font-size="20px" fill="#5f3dc4" text-anchor="start" style="white-space: pre;" direction="ltr">Pipeline 2</text></g><g transform="translate(421.3427429199219 338.18841552734375) rotate(0 53.5 12.5)"><text x="0" y="17" font-family="Virgil, Segoe UI Emoji" font-size="20px" fill="#5f3dc4" text-anchor="start" style="white-space: pre;" direction="ltr">Novos links</text></g></svg>