<svg version="1.1" xmlns="http://www.w3.org/2000/svg" viewBox="0 0 296.3263702392578 293.6852569580078" width="296.3263702392578" height="293.6852569580078">
  <!-- svg-source:excalidraw -->
  
  <defs>
    <style>
      @font-face {
        font-family: "Virgil";
        src: url("https://excalidraw.com/Virgil.woff2");
      }
      @font-face {
        font-family: "Cascadia";
        src: url("https://excalidraw.com/Cascadia.woff2");
      }
    </style>
  </defs>
  <g transform="translate(10 10) rotate(0 53.35942077636719 51.36466979980469)"><path d="M-0.719861077144742 -0.4140548538416624 C37.16162849742021 0.6021349005666359, 73.35532624764434 -1.314218861583175, 107.75475849024951 0.7464907933026552 M-0.9350637411698699 -0.4618500107899308 C41.963071680944424 0.8198090402871762, 83.21103868417444 0.5345572142392788, 106.68910003546625 0.34721995051950216 M108.13501180522144 -0.04574219696223736 C107.11847767573926 39.38982760630812, 107.65619507772061 73.08621779837242, 107.83367426507175 100.8191968370229 M107.61107588652521 -0.9564735824242234 C105.80388616362096 29.24180172468313, 106.10732122102262 56.599385465323195, 106.36680952552706 101.79135427530855 M107.71681149117649 103.7362381387502 C69.25552835987138 100.97834695806998, 31.649788365162948 104.10454614391821, 0.617239011451602 101.47366137988865 M107.71397916320711 103.01693472918123 C79.70772412680274 102.75426153614235, 52.46029725354535 102.55933601929856, -0.4769338881596923 102.65362424310297 M-0.4337515700608492 101.10730119235814 C-0.6792532983596985 79.07133186390378, -1.0215522232826415 57.93448858830587, -0.38685684092342854 -1.9665682148188353 M-0.7868458544835448 102.89309782441705 C0.955916172183619 73.5125484706383, -0.5973019839157004 42.40086565586099, 0.1235375190153718 -0.7204196089878678" stroke="#000000" stroke-width="1" fill="none"></path></g><g transform="translate(21.864669799804688 58.83836364746094) rotate(0 39.5 12.5)"><text x="39.5" y="17" font-family="Virgil, Segoe UI Emoji" font-size="20px" fill="#000000" text-anchor="middle" style="white-space: pre;" direction="ltr">Worker-1</text></g><g transform="translate(20.256072998046875 20.272552490234375) rotate(0 24.026275634765625 8.833189571605004)"><text x="0" y="11.666379143210008" font-family="Virgil, Segoe UI Emoji" font-size="14.133103314568013px" fill="#e67700" text-anchor="start" style="white-space: pre;" direction="ltr">estado</text></g><g transform="translate(86.76792907714844 180.95591735839844) rotate(0 53.35942077636719 51.36466979980469)"><path d="M1.9134923946112394 -1.8086197208613157 C37.86664258659829 1.0496407986560385, 75.71720603236952 -1.469885265739866, 106.89501656405628 0.14397151954472065 M-0.6716490006074309 0.8310916787013412 C40.44221714851353 -0.7209873684425898, 80.87698421468771 0.7010476402263097, 107.01614011172205 0.8987408941611648 M107.65728892199695 -0.20703832618892193 C104.44288808232139 20.06098432263194, 106.37589204436134 41.891341032121744, 108.06524856202304 103.14208497293293 M107.61087597254664 -0.6065212422981858 C107.43613737021086 28.50694366996267, 106.81884565148947 58.14653830481874, 106.90521053317934 102.94639465864748 M106.54720170609653 101.50230254419148 C82.10956147725439 105.2126237293986, 53.878294463133926 105.73613889425074, -1.6328685153275728 102.53323622234166 M107.26986674312502 103.26630494650453 C64.45183690527267 103.91729641843604, 21.855892066504808 102.62863234568404, 0.2761239493265748 103.50849754270166 M-0.180746303871274 101.92450542934239 C1.7772238312155522 62.48464768822954, 1.5562856851012028 27.229804671848143, 0.2536682616919279 0.8206601310521364 M-0.015324882231652737 102.98194939550012 C0.7474265982480701 81.84411478408911, 1.1487258066507038 59.97478050074207, 0.30939183477312326 0.6532563334330916" stroke="#000000" stroke-width="1" fill="none"></path></g><g transform="translate(94.12997436523438 229.79428100585938) rotate(0 45 12.5)"><text x="45" y="17" font-family="Virgil, Segoe UI Emoji" font-size="20px" fill="#000000" text-anchor="middle" style="white-space: pre;" direction="ltr">Worker-2</text></g><g transform="translate(97.02400207519531 191.2284698486328) rotate(0 24.026275634765625 8.833189571605004)"><text x="0" y="11.666379143210008" font-family="Virgil, Segoe UI Emoji" font-size="14.133103314568013px" fill="#e67700" text-anchor="start" style="white-space: pre;" direction="ltr">estado</text></g><g transform="translate(179.60752868652344 36.54191589355469) rotate(0 53.35942077636719 51.36466979980469)"><path d="M1.819188253954053 -1.963793383911252 C43.49726056772458 0.5119296779952887, 84.0702475085703 -1.2575810084022638, 107.20335526950657 -0.03837768919765949 M0.826903915964067 -0.5210724985226989 C28.500040394223003 0.01577601942335738, 57.72588740562403 0.6237650624207176, 106.30259031709284 -0.8633956527337432 M108.10762496478856 1.9640832673758268 C107.14640480297452 19.395294825292595, 105.18918991106396 43.51334834793104, 107.61629034765065 103.48011900298297 M106.32374114450067 0.10819415096193552 C107.52363609615549 36.03514745445669, 107.46247389260515 70.97520138203592, 106.61660341080278 103.59199041966349 M106.02963902242482 102.23399902693927 C86.60102580967953 104.74243355632682, 64.74078913807195 102.26429326177497, -1.2221459578722715 104.52180714718997 M106.58743838127702 101.76685018185526 C73.30403761179251 103.22818031357862, 41.00907735591883 101.8196040337, -0.9191311532631516 103.34944043401629 M1.1763559151440859 102.60571951977909 C0.1117279892064873 64.08643245379254, -0.9214642281435188 22.930134813465173, -0.4686919283121824 -0.2280715573579073 M0.0016321009024977684 103.51248226407915 C-1.1299672400792489 77.56841247921615, 0.598110439793264 53.16753365046887, -0.09364535752683878 -0.3550531780347228" stroke="#000000" stroke-width="1" fill="none"></path></g><g transform="translate(186.96957397460938 85.38027954101562) rotate(0 45 12.5)"><text x="45" y="17" font-family="Virgil, Segoe UI Emoji" font-size="20px" fill="#000000" text-anchor="middle" style="white-space: pre;" direction="ltr">Worker-3</text></g><g transform="translate(189.8636016845703 46.81446838378906) rotate(0 24.026275634765625 8.833189571605004)"><text x="0" y="11.666379143210008" font-family="Virgil, Segoe UI Emoji" font-size="14.133103314568013px" fill="#e67700" text-anchor="start" style="white-space: pre;" direction="ltr">estado</text></g></svg>